<svg width="157" height="37" viewBox="0 0 157 37" fill="none" xmlns="http://www.w3.org/2000/svg">
<g clip-path="url(#clip0_11_186)">
<path d="M61.52 24.848C61.1018 25.4541 60.5466 25.9415 59.9042 26.2664C59.1504 26.6304 58.3268 26.8076 57.4973 26.7842C56.4427 26.8297 55.4006 26.5298 54.5158 25.926C53.7267 25.3412 53.1236 24.5207 52.7851 23.5715C52.3945 22.4988 52.2018 21.358 52.2172 20.2098C52.1967 19.0438 52.3943 17.8849 52.7986 16.7985C53.1445 15.8098 53.7853 14.9645 54.6257 14.3882C55.4661 13.812 56.4614 13.5356 57.4635 13.6C58.6328 13.5304 59.7843 13.9254 60.6884 14.7064C61.441 15.4076 61.9221 16.3741 62.0406 17.4226H65.9145C65.8547 16.0086 65.4191 14.6403 64.657 13.4724C63.9028 12.3356 62.8737 11.4299 61.6755 10.8483C60.3565 10.2084 58.9164 9.89079 57.4635 9.91924C56.0691 9.88124 54.6839 10.167 53.4071 10.7561C52.303 11.2873 51.3208 12.0612 50.527 13.0256C49.7609 13.9674 49.1714 15.0526 48.7894 16.2241C48.4051 17.4019 48.2108 18.6387 48.2148 19.8836V20.5006C48.2135 21.7233 48.403 22.9379 48.7759 24.0963C49.146 25.2701 49.724 26.3601 50.4796 27.309C51.2638 28.2954 52.2539 29.0792 53.3733 29.5997C54.709 30.17 56.1399 30.4544 57.5819 30.4361C59.024 30.4179 60.4479 30.0973 61.7701 29.4933C62.9978 28.9183 64.0624 28.019 64.8598 26.8835C65.6455 25.7013 66.0828 24.3029 66.1173 22.8623H62.2366C62.1767 23.5808 61.9287 24.268 61.52 24.848Z" fill="white"/>
<path d="M67.6858 10.5362V13.756H70.3766V29.7982H74.3654V13.756V10.5362H70.3766H67.6858Z" fill="white"/>
<path d="M71.6747 7.85508C72.0137 7.88032 72.3539 7.8302 72.6732 7.70798C72.9924 7.58577 73.2834 7.39422 73.5272 7.14587C73.9338 6.6645 74.147 6.03674 74.1221 5.39413C74.1421 4.75659 73.9293 4.1351 73.5272 3.65658C73.2849 3.40597 72.9941 3.21293 72.6745 3.09057C72.3549 2.9682 72.0139 2.91937 71.6747 2.94737C71.3398 2.92164 71.0035 2.97164 70.6886 3.094C70.3737 3.21635 70.0875 3.4082 69.8493 3.65658C69.4472 4.1351 69.2344 4.75659 69.2544 5.39413C69.2295 6.03674 69.4428 6.6645 69.8493 7.14587C70.089 7.392 70.3755 7.58238 70.69 7.70458C71.0045 7.82678 71.3401 7.87806 71.6747 7.85508Z" fill="white"/>
<path d="M82.9584 12.3799C82.0539 13.5446 81.4966 14.963 81.3561 16.4579V10.5715H78.192V29.798H82.1741V19.5784C82.1236 18.8304 82.2173 18.0794 82.4496 17.3702C82.682 16.661 83.0481 16.0082 83.5263 15.4508C84.0645 14.9492 84.6927 14.5654 85.3742 14.3218C86.0557 14.0782 86.7766 13.9798 87.4948 14.0324H88.7253V10.3232H88.0492C85.8137 10.3232 84.1167 11.0088 82.9584 12.3799Z" fill="white"/>
<path d="M103.281 24.8495C102.859 25.4543 102.302 25.9413 101.659 26.2679C100.908 26.6328 100.086 26.81 99.2587 26.7857C98.1927 26.8309 97.1402 26.5232 96.2501 25.9062C95.4591 25.3218 94.8537 24.5015 94.5126 23.5517C94.1278 22.4775 93.9375 21.3375 93.9515 20.19C93.9277 19.0238 94.1253 17.8642 94.5329 16.7788C94.8788 15.79 95.5196 14.9447 96.36 14.3684C97.2004 13.7922 98.1957 13.5158 99.1978 13.5802C100.365 13.5103 101.515 13.9055 102.416 14.6866C103.169 15.3878 103.65 16.3543 103.768 17.4029H107.622C107.566 15.9923 107.141 14.6252 106.391 13.4526C105.637 12.3158 104.608 11.4101 103.41 10.8285C102.113 10.2316 100.714 9.91576 99.2981 9.89992C97.8819 9.88408 96.4772 10.1686 95.1684 10.7363C94.0622 11.2636 93.0792 12.0382 92.2883 13.0058C91.5223 13.9477 90.9328 15.0329 90.5508 16.2043C90.1642 17.3817 89.9677 18.6185 89.9694 19.8638V20.5021C89.9705 21.7251 90.1623 22.9397 90.5373 24.0978C90.9075 25.2701 91.483 26.3596 92.2342 27.3105C93.0225 28.2953 94.0144 29.0788 95.1346 29.6012C96.4359 30.1875 97.8429 30.4706 99.2587 30.431C100.739 30.4566 102.206 30.1343 103.552 29.4877C104.769 28.9077 105.825 28.012 106.621 26.885C107.407 25.7027 107.844 24.3044 107.879 22.8638H103.998C103.932 23.5808 103.684 24.2663 103.281 24.8495Z" fill="white"/>
<path d="M109.123 3.71332V6.92602H111.543V29.7979H115.566V6.92602V3.71332H111.543H109.123Z" fill="white"/>
<path d="M133.279 11.2811C131.796 10.3263 130.076 9.85481 128.337 9.92648C126.96 9.89452 125.594 10.1802 124.334 10.7633C123.241 11.2831 122.271 12.051 121.495 13.0115C120.745 13.9513 120.171 15.0319 119.805 16.1959C119.431 17.3761 119.242 18.6118 119.244 19.8554V20.5646C119.244 21.7987 119.433 23.0247 119.805 24.1957C120.171 25.3575 120.745 26.4357 121.495 27.373C122.282 28.3509 123.272 29.1271 124.388 29.6424C126.983 30.7634 129.89 30.7888 132.501 29.7133C133.622 29.2219 134.611 28.45 135.382 27.4651C136.161 26.4554 136.685 25.255 136.903 23.9759H133.191C132.956 24.8354 132.42 25.57 131.69 26.0326C130.736 26.6041 129.656 26.9047 128.557 26.9047C127.457 26.9047 126.377 26.6041 125.423 26.0326C124.603 25.4441 123.974 24.6081 123.618 23.6354C123.317 22.8299 123.134 21.9809 123.077 21.1178H137.275V19.4369C137.268 17.818 136.91 16.222 136.227 14.7704C135.57 13.344 134.55 12.1362 133.279 11.2811ZM125.409 14.2881C126.283 13.741 127.278 13.445 128.295 13.4301C129.313 13.4151 130.316 13.6817 131.203 14.203C131.944 14.7425 132.516 15.5002 132.846 16.3803C133.084 16.9943 133.245 17.6379 133.326 18.2951H123.172C123.257 17.7315 123.402 17.1796 123.604 16.6498C123.964 15.689 124.594 14.8655 125.409 14.2881Z" fill="white"/>
<path d="M153.629 20.167C152.173 19.1125 150.472 18.4924 148.707 18.3727L146.902 18.1954C146.112 18.1587 145.346 17.899 144.684 17.4437C144.462 17.2555 144.284 17.0148 144.167 16.7413C144.049 16.4677 143.995 16.1689 144.008 15.8692C144.005 15.5115 144.085 15.1584 144.242 14.8406C144.399 14.5229 144.627 14.2503 144.907 14.0466C145.682 13.5219 146.597 13.2732 147.517 13.3373C148.472 13.2732 149.422 13.5371 150.221 14.0891C150.505 14.3045 150.741 14.5824 150.911 14.9034C151.082 15.2244 151.183 15.5807 151.208 15.9472H154.853C154.876 15.085 154.7 14.2298 154.338 13.4551C153.976 12.6804 153.441 12.0096 152.777 11.5005C151.215 10.4205 149.366 9.88907 147.497 9.9828C146.22 9.95499 144.951 10.1962 143.765 10.692C142.766 11.1077 141.894 11.8017 141.243 12.6991C140.612 13.6499 140.289 14.789 140.324 15.9472C140.295 16.6811 140.43 17.4117 140.718 18.0814C141.005 18.751 141.437 19.3412 141.98 19.8053C143.274 20.8395 144.832 21.449 146.456 21.557L148.268 21.7414C149.222 21.7772 150.152 22.065 150.972 22.5783C151.231 22.772 151.44 23.0303 151.581 23.3299C151.721 23.6295 151.788 23.961 151.776 24.2946C151.77 24.6941 151.666 25.0852 151.474 25.4304C151.282 25.7756 151.009 26.0634 150.681 26.2662C149.78 26.8345 148.736 27.1062 147.686 27.0463C146.185 27.0463 145.11 26.7484 144.448 26.1527C144.153 25.9183 143.908 25.623 143.726 25.2851C143.545 24.9472 143.431 24.5739 143.393 24.1882H139.715C139.715 25.069 139.911 25.9377 140.286 26.7255C140.662 27.5133 141.207 28.1986 141.879 28.7271C143.231 29.824 145.155 30.3725 147.652 30.3725C149.039 30.3997 150.418 30.1394 151.709 29.6065C152.803 29.1627 153.761 28.415 154.481 27.4435C155.141 26.5015 155.488 25.3575 155.468 24.1882C155.498 23.4113 155.346 22.6386 155.025 21.9376C154.705 21.2366 154.225 20.6287 153.629 20.167Z" fill="white"/>
<path d="M18.5042 3.99521C21.3753 3.99521 24.1819 4.84273 26.5691 6.4306C28.9563 8.01847 30.8169 10.2754 31.9157 12.9159C33.0144 15.5564 33.3018 18.462 32.7417 21.2652C32.1816 24.0683 30.799 26.6432 28.7689 28.6642C26.7387 30.6852 24.1521 32.0615 21.3362 32.6191C18.5203 33.1766 15.6015 32.8905 12.949 31.7967C10.2965 30.703 8.02931 28.8508 6.43422 26.4744C4.83913 24.098 3.98776 21.3041 3.98776 18.446C3.98776 14.6134 5.51717 10.9378 8.23953 8.22774C10.9619 5.5177 14.6542 3.99521 18.5042 3.99521ZM18.5042 0C14.8444 0 11.2668 1.08034 8.22382 3.10441C5.18082 5.12848 2.8091 8.00536 1.40856 11.3713C0.00801759 14.7372 -0.358427 18.4409 0.355561 22.0141C1.06955 25.5873 2.8319 28.8696 5.41976 31.4457C8.00762 34.0219 11.3048 35.7762 14.8942 36.487C18.4837 37.1977 22.2043 36.833 25.5855 35.4388C28.9667 34.0446 31.8566 31.6836 33.8899 28.6543C35.9231 25.6251 37.0084 22.0637 37.0084 18.4205C37.0084 13.5351 35.0589 8.84974 31.5886 5.39523C28.1184 1.94072 23.4118 0 18.5042 0Z" fill="#1352F1"/>
<path d="M18.5044 10.4288C16.9162 10.4288 15.3636 10.8975 14.043 11.7757C12.7224 12.6538 11.6931 13.9019 11.0853 15.3622C10.4775 16.8225 10.3184 18.4293 10.6283 19.9796C10.9382 21.5298 11.703 22.9538 12.8261 24.0714C13.9491 25.1891 15.38 25.9502 16.9378 26.2586C18.4955 26.5669 20.1102 26.4087 21.5776 25.8038C23.0449 25.1989 24.2991 24.1746 25.1815 22.8604C26.0639 21.5462 26.5349 20.0011 26.5349 18.4205C26.5349 16.301 25.6888 14.2683 24.1828 12.7695C22.6768 11.2708 20.6342 10.4288 18.5044 10.4288Z" fill="#1352F1"/>
</g>
<defs>
<clipPath id="clip0_11_186">
<rect width="156.574" height="36.8409" fill="white"/>
</clipPath>
</defs>
</svg>
