<svg width="125" height="30" viewBox="0 0 125 30" fill="none" xmlns="http://www.w3.org/2000/svg">
<g clip-path="url(#clip0_1_115)">
<path d="M48.9831 19.7844C48.6502 20.267 48.2081 20.6551 47.6966 20.9138C47.0964 21.2036 46.4407 21.3446 45.7802 21.326C44.9405 21.3623 44.1108 21.1235 43.4063 20.6427C42.778 20.177 42.2978 19.5238 42.0283 18.768C41.7173 17.9139 41.5638 17.0056 41.5761 16.0914C41.5598 15.163 41.7171 14.2402 42.039 13.3753C42.3144 12.588 42.8246 11.915 43.4938 11.4561C44.163 10.9973 44.9554 10.7772 45.7533 10.8286C46.6844 10.7731 47.6011 11.0877 48.321 11.7095C48.9202 12.2678 49.3033 13.0373 49.3976 13.8722H52.4821C52.4345 12.7463 52.0877 11.6569 51.4809 10.7269C50.8804 9.82178 50.061 9.10064 49.107 8.6376C48.0568 8.12814 46.9101 7.87521 45.7533 7.89787C44.6431 7.86761 43.5401 8.09514 42.5235 8.56419C41.6445 8.9871 40.8624 9.60336 40.2303 10.3712C39.6204 11.1211 39.151 11.9852 38.8469 12.9179C38.5408 13.8557 38.3862 14.8404 38.3893 15.8316V16.3229C38.3883 17.2964 38.5392 18.2635 38.8361 19.1858C39.1308 20.1205 39.591 20.9883 40.1926 21.7438C40.817 22.5292 41.6054 23.1533 42.4966 23.5678C43.5601 24.0219 44.6994 24.2483 45.8476 24.2337C46.9958 24.2192 48.1296 23.964 49.1823 23.4831C50.1598 23.0252 51.0074 22.3092 51.6424 21.405C52.2679 20.4638 52.6161 19.3504 52.6436 18.2033H49.5537C49.506 18.7754 49.3086 19.3226 48.9831 19.7844Z" fill="white"/>
<path d="M53.8925 8.38911V10.9528H56.0349V23.7259H59.2109V10.9528V8.38911H56.0349H53.8925Z" fill="white"/>
<path d="M57.0686 6.25437C57.3385 6.27447 57.6094 6.23456 57.8635 6.13725C58.1177 6.03994 58.3494 5.88743 58.5435 5.68969C58.8673 5.30642 59.037 4.80658 59.0172 4.29493C59.0331 3.78731 58.8637 3.29247 58.5435 2.91146C58.3506 2.71192 58.1191 2.55822 57.8646 2.46079C57.6101 2.36336 57.3386 2.32448 57.0686 2.34678C56.8019 2.32629 56.5341 2.3661 56.2834 2.46352C56.0327 2.56094 55.8048 2.7137 55.6152 2.91146C55.295 3.29247 55.1256 3.78731 55.1414 4.29493C55.1217 4.80658 55.2914 5.30642 55.6152 5.68969C55.806 5.88566 56.0341 6.03724 56.2845 6.13454C56.5349 6.23184 56.8021 6.27267 57.0686 6.25437Z" fill="white"/>
<path d="M66.0527 9.85712C65.3326 10.7844 64.8889 11.9138 64.7769 13.104V8.41718H62.2577V23.7257H65.4283V15.5886C65.3881 14.9931 65.4627 14.3951 65.6477 13.8304C65.8327 13.2658 66.1242 12.746 66.5049 12.3022C66.9334 11.9028 67.4337 11.5972 67.9763 11.4033C68.5189 11.2093 69.0929 11.131 69.6647 11.1728H70.6445V8.21954H70.1061C68.3262 8.21954 66.975 8.7654 66.0527 9.85712Z" fill="white"/>
<path d="M82.2342 19.7856C81.898 20.2671 81.4544 20.6549 80.9423 20.915C80.3442 21.2055 79.6901 21.3466 79.0313 21.3272C78.1826 21.3632 77.3445 21.1182 76.6359 20.627C76.006 20.1616 75.524 19.5085 75.2524 18.7522C74.946 17.897 74.7945 16.9892 74.8056 16.0756C74.7867 15.147 74.944 14.2237 75.2686 13.3595C75.544 12.5722 76.0542 11.8992 76.7233 11.4404C77.3925 10.9816 78.1849 10.7615 78.9829 10.8128C79.9123 10.7571 80.8275 11.0718 81.5452 11.6937C82.1444 12.252 82.5275 13.0216 82.6218 13.8564H85.6901C85.6461 12.7333 85.3071 11.6448 84.7104 10.7112C84.1099 9.80602 83.2906 9.08489 82.3365 8.62184C81.3038 8.14658 80.1903 7.89509 79.0627 7.88247C77.9351 7.86986 76.8167 8.09638 75.7746 8.54844C74.8938 8.96825 74.1111 9.58497 73.4814 10.3554C72.8715 11.1053 72.4021 11.9694 72.098 12.9021C71.7902 13.8396 71.6337 14.8244 71.635 15.8159V16.3241C71.6359 17.2979 71.7886 18.265 72.0872 19.187C72.382 20.1204 72.8402 20.9879 73.4383 21.745C74.066 22.5292 74.8557 23.153 75.7477 23.569C76.7838 24.0357 77.9041 24.2612 79.0313 24.2296C80.2099 24.25 81.3778 23.9934 82.4495 23.4786C83.4188 23.0168 84.2598 22.3036 84.8934 21.4062C85.519 20.4649 85.8672 19.3516 85.8947 18.2045H82.8048C82.7521 18.7754 82.5551 19.3212 82.2342 19.7856Z" fill="white"/>
<path d="M86.8853 2.95657V5.51458H88.8124V23.7255H92.0153V5.51458V2.95657H88.8124H86.8853Z" fill="white"/>
<path d="M106.119 8.98218C104.938 8.22194 103.568 7.84657 102.184 7.90364C101.088 7.87819 99.9998 8.10566 98.9969 8.56997C98.1263 8.98383 97.3541 9.59521 96.736 10.36C96.1387 11.1083 95.682 11.9686 95.3903 12.8954C95.0929 13.8351 94.9421 14.819 94.9435 15.8092V16.3739C94.9438 17.3565 95.0947 18.3326 95.3903 19.265C95.6821 20.1901 96.1387 21.0486 96.736 21.7948C97.3627 22.5734 98.1508 23.1915 99.04 23.6018C101.106 24.4943 103.42 24.5145 105.5 23.6582C106.392 23.267 107.179 22.6524 107.793 21.8682C108.414 21.0643 108.83 20.1085 109.004 19.09H106.049C105.861 19.7744 105.435 20.3593 104.854 20.7275C104.094 21.1826 103.234 21.4219 102.359 21.4219C101.484 21.4219 100.624 21.1826 99.8636 20.7275C99.211 20.259 98.7097 19.5934 98.4263 18.8189C98.1865 18.1776 98.0412 17.5016 97.9957 16.8143H109.3V15.476C109.295 14.187 109.01 12.9162 108.466 11.7604C107.943 10.6247 107.131 9.66308 106.119 8.98218ZM99.8528 11.3764C100.548 10.9408 101.341 10.7052 102.151 10.6933C102.961 10.6814 103.759 10.8936 104.466 11.3087C105.056 11.7383 105.511 12.3415 105.774 13.0422C105.963 13.5311 106.092 14.0436 106.156 14.5669H98.071C98.139 14.1181 98.2545 13.6787 98.4155 13.2568C98.7022 12.4919 99.2033 11.8362 99.8528 11.3764Z" fill="white"/>
<path d="M122.322 16.0573C121.163 15.2177 119.808 14.7239 118.403 14.6286L116.966 14.4875C116.336 14.4583 115.726 14.2515 115.2 13.8889C115.023 13.7391 114.881 13.5475 114.788 13.3297C114.694 13.1118 114.651 12.874 114.662 12.6353C114.659 12.3505 114.723 12.0693 114.848 11.8164C114.972 11.5634 115.154 11.3463 115.378 11.1841C115.994 10.7663 116.723 10.5683 117.455 10.6194C118.216 10.5684 118.972 10.7785 119.609 11.218C119.835 11.3895 120.022 11.6108 120.158 11.8664C120.294 12.1219 120.374 12.4056 120.395 12.6974H123.296C123.315 12.0109 123.174 11.33 122.886 10.7132C122.598 10.0964 122.172 9.56225 121.643 9.15688C120.399 8.29699 118.927 7.87383 117.439 7.94847C116.423 7.92632 115.412 8.11834 114.468 8.51315C113.672 8.84411 112.978 9.39667 112.46 10.1112C111.957 10.8683 111.701 11.7752 111.728 12.6974C111.705 13.2817 111.813 13.8635 112.042 14.3967C112.271 14.9299 112.615 15.3998 113.047 15.7693C114.077 16.5928 115.317 17.0781 116.61 17.1641L118.053 17.3109C118.813 17.3393 119.553 17.5685 120.206 17.9772C120.413 18.1314 120.579 18.3371 120.691 18.5756C120.803 18.8142 120.856 19.0781 120.847 19.3437C120.842 19.6618 120.759 19.9732 120.606 20.2481C120.453 20.523 120.236 20.7521 119.975 20.9135C119.257 21.366 118.426 21.5824 117.59 21.5347C116.395 21.5347 115.539 21.2975 115.012 20.8232C114.777 20.6365 114.582 20.4014 114.437 20.1324C114.293 19.8634 114.202 19.5661 114.172 19.259H111.243C111.243 19.9603 111.399 20.652 111.698 21.2793C111.997 21.9066 112.431 22.4522 112.966 22.873C114.043 23.7464 115.575 24.183 117.563 24.183C118.667 24.2047 119.765 23.9975 120.793 23.5732C121.664 23.2198 122.427 22.6244 123 21.8509C123.526 21.1009 123.802 20.1901 123.786 19.259C123.81 18.6405 123.689 18.0252 123.433 17.4671C123.178 16.9089 122.797 16.4249 122.322 16.0573Z" fill="white"/>
<path d="M14.7333 3.18105C17.0193 3.18105 19.254 3.85586 21.1547 5.12015C23.0555 6.38443 24.5369 8.18141 25.4117 10.2838C26.2866 12.3863 26.5154 14.6997 26.0695 16.9317C25.6235 19.1636 24.5227 21.2138 22.9062 22.8229C21.2898 24.432 19.2303 25.5278 16.9882 25.9718C14.7462 26.4158 12.4222 26.1879 10.3102 25.3171C8.19821 24.4462 6.39306 22.9715 5.12303 21.0793C3.85299 19.1872 3.17512 16.9626 3.17512 14.687C3.17512 11.6354 4.39285 8.70883 6.56044 6.55105C8.72803 4.39328 11.6679 3.18105 14.7333 3.18105ZM14.7333 0C11.8194 0 8.97082 0.860185 6.54794 2.47178C4.12505 4.08337 2.23665 6.37399 1.12151 9.05398C0.00638373 11.734 -0.285385 14.6829 0.283103 17.528C0.851592 20.373 2.25481 22.9864 4.3153 25.0376C6.37579 27.0887 9.00102 28.4856 11.859 29.0515C14.717 29.6174 17.6794 29.327 20.3715 28.2169C23.0637 27.1068 25.3647 25.2269 26.9837 22.815C28.6026 20.4031 29.4667 17.5675 29.4667 14.6667C29.4667 10.7768 27.9144 7.0463 25.1514 4.29577C22.3883 1.54523 18.6409 0 14.7333 0Z" fill="#1352F1"/>
<path d="M14.7334 8.30363C13.4688 8.30363 12.2326 8.67682 11.1811 9.37601C10.1297 10.0752 9.31014 11.069 8.82619 12.2317C8.34225 13.3944 8.21563 14.6738 8.46234 15.9081C8.70905 17.1424 9.31802 18.2762 10.2122 19.1661C11.1064 20.056 12.2457 20.662 13.486 20.9075C14.7263 21.153 16.012 21.027 17.1803 20.5454C18.3486 20.0638 19.3473 19.2482 20.0498 18.2018C20.7524 17.1554 21.1274 15.9252 21.1274 14.6667C21.1274 12.9791 20.4538 11.3606 19.2547 10.1673C18.0556 8.97403 16.4292 8.30363 14.7334 8.30363Z" fill="#1352F1"/>
</g>
<defs>
<clipPath id="clip0_1_115">
<rect width="124.667" height="29.3333" fill="white"/>
</clipPath>
</defs>
</svg>
